<svg id="Layer_1" data-name="Layer 1" xmlns="http://www.w3.org/2000/svg" viewBox="0 0 590.68 628.93"><defs><style>.cls-1{fill:#36a9e1;}</style></defs><path class="cls-1" d="M313,683.57,414.68,471c1.9,2.32,3.3,3.5,4,5,20.08,42,40.23,84.06,60,126.26,3.06,6.56,6.35,9.43,14.07,9.32,33.22-.51,66.45-.22,99.67-.22h9.74L392,218.83c-4,8.4-7.54,15.63-10.82,23Q337.79,339.2,294.51,436.6q-35,78.67-70.09,157.31c-7.07,15.9-14.75,31.58-20.86,47.84-7.82,20.81-22.78,32.91-43.74,36.89-16.76,3.18-34,3.92-51,5.67-1.09.11-2.24-.38-4.14-.74l280-628.12,2.16-.06c3.91,7.1,7.89,14.15,11.71,21.3q33,61.65,65.89,123.33,38.35,71.56,76.82,143.08,32.49,60.67,64.81,121.47,33.32,62.25,66.81,124.4c6.13,11.4,12.69,22.57,18.53,34.12A36.45,36.45,0,0,1,695,636.51a210.5,210.5,0,0,1,.11,22.61c-.48,15.53-10,25-25.54,25q-173.89.11-347.81,0C319.48,684.18,317.21,683.87,313,683.57Z" transform="translate(-104.66 -55.39)"/></svg>